<svg xmlns="http://www.w3.org/2000/svg" version="1.1" width="10" height="10">
<rect x="0" y="0" width="10" height="10" fill="gold" style="stroke:rgb(255,255,255);stroke-width:0;"/>
<line x1="8" y1="0" x2="1" y2="0" style="stroke:rgb(0,0,0);stroke-width:0.2"/>
<line x1="8" y1="3" x2="8" y2="10" style="stroke:rgb(0,0,0);stroke-width:0.2"/>
<line x1="0" y1="4" x2="1" y2="0" style="stroke:rgb(0,0,0);stroke-width:0.2"/>
<line x1="1" y1="4" x2="9" y2="4" style="stroke:rgb(0,0,0);stroke-width:0.2"/>
<line x1="2" y1="0" x2="1" y2="1" style="stroke:rgb(0,0,0);stroke-width:0.2"/>
<line x1="2" y1="1" x2="2" y2="5" style="stroke:rgb(0,0,0);stroke-width:0.2"/>
<line x1="2" y1="1" x2="3" y2="1" style="stroke:rgb(0,0,0);stroke-width:0.2"/>
<line x1="1" y1="0" x2="1" y2="1" style="stroke:rgb(0,0,0);stroke-width:0.2"/>
<line x1="1" y1="1" x2="1" y2="2" style="stroke:rgb(0,0,0);stroke-width:0.2"/>
<line x1="0" y1="0" x2="1" y2="0" style="stroke:rgb(0,0,0);stroke-width:0.2"/>
<line x1="1" y1="0" x2="2" y2="0" style="stroke:rgb(0,0,0);stroke-width:0.2"/>
<line x1="1" y1="2" x2="1" y2="0" style="stroke:rgb(0,0,0);stroke-width:0.2"/>
<line x1="1" y1="4" x2="1" y2="5" style="stroke:rgb(0,0,0);stroke-width:0.2"/>
<line x1="0" y1="3" x2="1" y2="0" style="stroke:rgb(0,0,0);stroke-width:0.2"/>
<line x1="1" y1="3" x2="2" y2="3" style="stroke:rgb(0,0,0);stroke-width:0.2"/>
<line x1="0" y1="2" x2="0" y2="0" style="stroke:rgb(0,0,0);stroke-width:0.2"/>
<line x1="6" y1="0" x2="1" y2="0" style="stroke:rgb(0,0,0);stroke-width:0.2"/>
<line x1="6" y1="4" x2="6" y2="5" style="stroke:rgb(0,0,0);stroke-width:0.2"/>
<line x1="3" y1="0" x2="1" y2="0" style="stroke:rgb(0,0,0);stroke-width:0.2"/>
<line x1="4" y1="0" x2="7" y2="0" style="stroke:rgb(0,0,0);stroke-width:0.2"/>
<line x1="3" y1="1" x2="1" y2="1" style="stroke:rgb(0,0,0);stroke-width:0.2"/>
<line x1="4" y1="1" x2="7" y2="1" style="stroke:rgb(0,0,0);stroke-width:0.2"/>
<line x1="5" y1="2" x2="1" y2="0" style="stroke:rgb(0,0,0);stroke-width:0.2"/>
<line x1="3" y1="2" x2="1" y2="0" style="stroke:rgb(0,0,0);stroke-width:0.2"/>
<line x1="3" y1="3" x2="3" y2="5" style="stroke:rgb(0,0,0);stroke-width:0.2"/>
<line x1="4" y1="3" x2="1" y2="0" style="stroke:rgb(0,0,0);stroke-width:0.2"/>
<line x1="4" y1="2" x2="1" y2="0" style="stroke:rgb(0,0,0);stroke-width:0.2"/>
<line x1="5" y1="2" x2="6" y2="2" style="stroke:rgb(0,0,0);stroke-width:0.2"/>
<line x1="7" y1="2" x2="1" y2="0" style="stroke:rgb(0,0,0);stroke-width:0.2"/>
<line x1="7" y1="1" x2="1" y2="1" style="stroke:rgb(0,0,0);stroke-width:0.2"/>
<line x1="8" y1="1" x2="9" y2="1" style="stroke:rgb(0,0,0);stroke-width:0.2"/>
<line x1="7" y1="0" x2="1" y2="0" style="stroke:rgb(0,0,0);stroke-width:0.2"/>
<line x1="7" y1="3" x2="1" y2="0" style="stroke:rgb(0,0,0);stroke-width:0.2"/>
<line x1="4" y1="5" x2="1" y2="0" style="stroke:rgb(0,0,0);stroke-width:0.2"/>
<line x1="4" y1="9" x2="4" y2="10" style="stroke:rgb(0,0,0);stroke-width:0.2"/>
<line x1="1" y1="5" x2="1" y2="0" style="stroke:rgb(0,0,0);stroke-width:0.2"/>
<line x1="1" y1="7" x2="1" y2="10" style="stroke:rgb(0,0,0);stroke-width:0.2"/>
<line x1="0" y1="7" x2="1" y2="0" style="stroke:rgb(0,0,0);stroke-width:0.2"/>
<line x1="1" y1="7" x2="2" y2="7" style="stroke:rgb(0,0,0);stroke-width:0.2"/>
<line x1="0" y1="6" x2="0" y2="0" style="stroke:rgb(0,0,0);stroke-width:0.2"/>
<line x1="0" y1="5" x2="1" y2="0" style="stroke:rgb(0,0,0);stroke-width:0.2"/>
<line x1="1" y1="5" x2="2" y2="5" style="stroke:rgb(0,0,0);stroke-width:0.2"/>
<line x1="0" y1="8" x2="0" y2="0" style="stroke:rgb(0,0,0);stroke-width:0.2"/>
<line x1="0" y1="9" x2="0" y2="10" style="stroke:rgb(0,0,0);stroke-width:0.2"/>
<line x1="2" y1="7" x2="1" y2="0" style="stroke:rgb(0,0,0);stroke-width:0.2"/>
<line x1="2" y1="6" x2="1" y2="0" style="stroke:rgb(0,0,0);stroke-width:0.2"/>
<line x1="3" y1="6" x2="5" y2="6" style="stroke:rgb(0,0,0);stroke-width:0.2"/>
<line x1="2" y1="5" x2="1" y2="0" style="stroke:rgb(0,0,0);stroke-width:0.2"/>
<line x1="2" y1="6" x2="2" y2="7" style="stroke:rgb(0,0,0);stroke-width:0.2"/>
<line x1="3" y1="5" x2="1" y2="0" style="stroke:rgb(0,0,0);stroke-width:0.2"/>
<line x1="4" y1="5" x2="5" y2="5" style="stroke:rgb(0,0,0);stroke-width:0.2"/>
<line x1="3" y1="8" x2="1" y2="0" style="stroke:rgb(0,0,0);stroke-width:0.2"/>
<line x1="3" y1="9" x2="3" y2="10" style="stroke:rgb(0,0,0);stroke-width:0.2"/>
<line x1="2" y1="8" x2="1" y2="0" style="stroke:rgb(0,0,0);stroke-width:0.2"/>
<line x1="3" y1="8" x2="4" y2="8" style="stroke:rgb(0,0,0);stroke-width:0.2"/>
<line x1="5" y1="8" x2="1" y2="0" style="stroke:rgb(0,0,0);stroke-width:0.2"/>
<line x1="7" y1="8" x2="9" y2="8" style="stroke:rgb(0,0,0);stroke-width:0.2"/>
<line x1="6" y1="5" x2="1" y2="0" style="stroke:rgb(0,0,0);stroke-width:0.2"/>
<line x1="6" y1="8" x2="6" y2="9" style="stroke:rgb(0,0,0);stroke-width:0.2"/>
<line x1="5" y1="6" x2="1" y2="0" style="stroke:rgb(0,0,0);stroke-width:0.2"/>
<line x1="5" y1="5" x2="1" y2="0" style="stroke:rgb(0,0,0);stroke-width:0.2"/>
<line x1="5" y1="7" x2="1" y2="0" style="stroke:rgb(0,0,0);stroke-width:0.2"/>
<line x1="7" y1="6" x2="1" y2="0" style="stroke:rgb(0,0,0);stroke-width:0.2"/>
<line x1="7" y1="5" x2="1" y2="0" style="stroke:rgb(0,0,0);stroke-width:0.2"/>
<line x1="7" y1="7" x2="1" y2="0" style="stroke:rgb(0,0,0);stroke-width:0.2"/>
<line x1="8" y1="7" x2="9" y2="7" style="stroke:rgb(0,0,0);stroke-width:0.2"/>
</svg>
